<svg viewBox="0 0 800 600" preserveAspectRatio="xMidYMid meet" xmlns="http://www.w3.org/2000/svg">
    <style>
        :root {
            --primary-color: #d82c20;       /* Redis Red */
            --accent-color: #0d6da4;        /* Docker Blue */
            --ink-color: #2f2e41;
            --bg-blob-color: #f2f2f2;
            --surface-color: #ffffff;
            --surface-border: #2f2e41;
            --secondary-fill: #e0e0e0;
        }
        @media (prefers-color-scheme: dark) {
            :root {
                --primary-color: #ff5252;
                --accent-color: #57b6ff;
                --ink-color: #e0e0e0;
                --bg-blob-color: #374151;
                --surface-color: #1f2937;
                --surface-border: #9ca3af;
                --secondary-fill: #4b5563;
            }
        }
        .primary-fill { fill: var(--primary-color); }
        .primary-stroke { stroke: var(--primary-color); }
        .accent-fill { fill: var(--accent-color); }
        .ink-fill { fill: var(--ink-color); }
        .ink-stroke { stroke: var(--ink-color); }
        .blob-fill { fill: var(--bg-blob-color); }
        .surface-fill { fill: var(--surface-color); }
        .surface-stroke { stroke: var(--surface-border); }
        .secondary-fill { fill: var(--secondary-fill); }
        .secondary-stroke { stroke: var(--secondary-fill); }
    </style>

    <!-- Background Blob -->
    <path class="blob-fill" d="M600,400 Q500,550 300,520 Q100,490 130,300 Q160,110 400,140 Q640,170 600,400 Z" opacity="0.8"/>

    <!-- Decorative Corner: Top Right -->
    <g transform="translate(700, 60)">
        <rect x="0" y="0" width="10" height="10" class="primary-fill" opacity="0.6"/>
        <rect x="15" y="0" width="10" height="10" class="primary-fill" opacity="0.4"/>
        <rect x="0" y="15" width="10" height="10" class="primary-fill" opacity="0.4"/>
        <rect x="15" y="15" width="10" height="10" class="primary-fill" opacity="0.2"/>
    </g>

    <!-- Main Illustration: Redis Cluster in Docker -->
    <g transform="translate(200, 150)">
        <!-- Hexagon Cluster Layout -->
        <g transform="translate(100, 0)">
            <!-- Node 1 -->
            <g transform="translate(100, 0)">
                <path d="M30,0 L90,0 L120,52 L90,104 L30,104 L0,52 Z" class="surface-fill surface-stroke" stroke-width="2"/>
                <circle cx="60" cy="52" r="25" class="primary-fill"/>
                <path d="M45,52 L55,62 L75,42" fill="none" stroke="#fff" stroke-width="3"/>
            </g>
            
            <!-- Node 2 -->
            <g transform="translate(0, 160)">
                <path d="M30,0 L90,0 L120,52 L90,104 L30,104 L0,52 Z" class="surface-fill surface-stroke" stroke-width="2"/>
                <circle cx="60" cy="52" r="25" class="primary-fill"/>
                <path d="M45,52 L55,62 L75,42" fill="none" stroke="#fff" stroke-width="3"/>
            </g>
            
            <!-- Node 3 -->
            <g transform="translate(200, 160)">
                <path d="M30,0 L90,0 L120,52 L90,104 L30,104 L0,52 Z" class="surface-fill surface-stroke" stroke-width="2"/>
                <circle cx="60" cy="52" r="25" class="primary-fill"/>
                <path d="M45,52 L55,62 L75,42" fill="none" stroke="#fff" stroke-width="3"/>
            </g>
        </g>

        <!-- Connections -->
        <line x1="160" y1="104" x2="100" y2="160" class="accent-fill" stroke="var(--accent-color)" stroke-width="3" stroke-dasharray="5,5"/>
        <line x1="220" y1="104" x2="280" y2="160" class="accent-fill" stroke="var(--accent-color)" stroke-width="3" stroke-dasharray="5,5"/>
        <line x1="120" y1="212" x2="200" y2="212" class="accent-fill" stroke="var(--accent-color)" stroke-width="3" stroke-dasharray="5,5"/>
        
        <!-- Docker Logo Small -->
        <g transform="translate(170, 130)">
             <path d="M0,10 Q0,20 10,20 L30,20 Q40,20 40,10 Q40,0 30,0 L0,0 Z" class="accent-fill"/>
             <circle cx="10" cy="8" r="2" class="surface-fill"/>
        </g>
    </g>

    <!-- Decorative Corner: Bottom Left -->
    <g transform="translate(50, 500)">
        <path d="M0,20 L20,0 L40,20 L20,40 Z" class="secondary-fill" opacity="0.5"/>
        <path d="M10,20 L20,10 L30,20 L20,30 Z" class="surface-fill"/>
    </g>
</svg>