<svg viewBox="0 0 800 600" preserveAspectRatio="xMidYMid meet" xmlns="http://www.w3.org/2000/svg">
    <style>
        :root {
            --primary-color: #00add8;       /* Go Blue */
            --accent-color: #fce205;        /* Go Gopher Yellow (approx) */
            --ink-color: #2f2e41;
            --bg-blob-color: #f2f2f2;
            --surface-color: #ffffff;
            --surface-border: #2f2e41;
            --secondary-fill: #e0e0e0;
        }
        @media (prefers-color-scheme: dark) {
            :root {
                --primary-color: #4fc3f7;
                --accent-color: #fff59d;
                --ink-color: #e0e0e0;
                --bg-blob-color: #374151;
                --surface-color: #1f2937;
                --surface-border: #9ca3af;
                --secondary-fill: #4b5563;
            }
        }
        .primary-fill { fill: var(--primary-color); }
        .primary-stroke { stroke: var(--primary-color); }
        .accent-fill { fill: var(--accent-color); }
        .ink-fill { fill: var(--ink-color); }
        .ink-stroke { stroke: var(--ink-color); }
        .blob-fill { fill: var(--bg-blob-color); }
        .surface-fill { fill: var(--surface-color); }
        .surface-stroke { stroke: var(--surface-border); }
        .secondary-fill { fill: var(--secondary-fill); }
        .secondary-stroke { stroke: var(--secondary-fill); }
    </style>

    <!-- Background Blob -->
    <path class="blob-fill" d="M600,400 Q500,550 300,520 Q100,490 130,300 Q160,110 400,140 Q640,170 600,400 Z" opacity="0.8"/>

    <!-- Decorative Corner: Top Left -->
    <g transform="translate(50, 50)">
        <rect x="0" y="0" width="10" height="10" class="primary-fill" opacity="0.6"/>
        <rect x="15" y="0" width="10" height="10" class="primary-fill" opacity="0.4"/>
        <rect x="0" y="15" width="10" height="10" class="primary-fill" opacity="0.4"/>
        <rect x="15" y="15" width="10" height="10" class="primary-fill" opacity="0.2"/>
    </g>

    <!-- Main Illustration: Concurrency (Gophers) -->
    <g transform="translate(200, 180)">
        <!-- Channel Pipe -->
        <g transform="translate(0, 50)">
            <rect x="0" y="0" width="400" height="40" rx="20" class="surface-fill surface-stroke" stroke-width="2"/>
            <text x="180" y="25" font-family="monospace" class="ink-fill">channel</text>
        </g>

        <!-- Goroutine 1 (Sender) -->
        <g transform="translate(20, -40)">
            <circle cx="30" cy="30" r="30" class="primary-fill"/>
            <rect x="20" y="20" width="20" height="10" rx="2" fill="#fff"/> <!-- Eyes -->
            <path d="M30,60 L30,90" class="ink-stroke" stroke-width="3"/>
            <polygon points="25,90 35,90 30,100" class="ink-fill"/>
            <circle cx="30" cy="80" r="5" class="accent-fill"/> <!-- Data -->
        </g>

        <!-- Goroutine 2 (Sender) -->
        <g transform="translate(120, -40)">
            <circle cx="30" cy="30" r="30" class="primary-fill"/>
            <rect x="20" y="20" width="20" height="10" rx="2" fill="#fff"/>
            <path d="M30,60 L30,90" class="ink-stroke" stroke-width="3"/>
            <polygon points="25,90 35,90 30,100" class="ink-fill"/>
            <circle cx="30" cy="80" r="5" class="accent-fill"/>
        </g>

        <!-- Goroutine 3 (Receiver) -->
        <g transform="translate(300, 100)">
            <circle cx="30" cy="30" r="30" class="primary-fill"/>
            <rect x="20" y="20" width="20" height="10" rx="2" fill="#fff"/>
            <path d="M30,0 L30,-30" class="ink-stroke" stroke-width="3"/>
            <polygon points="25,-30 35,-30 30,-40" class="ink-fill" transform="rotate(180, 30, -35)"/>
            <circle cx="30" cy="-20" r="5" class="accent-fill"/>
        </g>
    </g>

    <!-- Decorative Corner: Bottom Right -->
    <g transform="translate(700, 500)">
        <path d="M0,20 L20,0 L40,20 L20,40 Z" class="secondary-fill" opacity="0.5"/>
        <path d="M10,20 L20,10 L30,20 L20,30 Z" class="surface-fill"/>
    </g>
</svg>