<svg viewBox="0 0 800 600" preserveAspectRatio="xMidYMid meet" xmlns="http://www.w3.org/2000/svg">
    <style>
        :root {
            --primary-color: #326ce5;       /* K8s Blue */
            --accent-color: #999999;        /* Apple Silver/Grey */
            --ink-color: #2f2e41;
            --bg-blob-color: #f2f2f2;
            --surface-color: #ffffff;
            --surface-border: #2f2e41;
            --secondary-fill: #e0e0e0;
        }
        @media (prefers-color-scheme: dark) {
            :root {
                --primary-color: #5c94ff;
                --accent-color: #b0b0b0;
                --ink-color: #e0e0e0;
                --bg-blob-color: #374151;
                --surface-color: #1f2937;
                --surface-border: #9ca3af;
                --secondary-fill: #4b5563;
            }
        }
        .primary-fill { fill: var(--primary-color); }
        .primary-stroke { stroke: var(--primary-color); }
        .accent-fill { fill: var(--accent-color); }
        .ink-fill { fill: var(--ink-color); }
        .ink-stroke { stroke: var(--ink-color); }
        .blob-fill { fill: var(--bg-blob-color); }
        .surface-fill { fill: var(--surface-color); }
        .surface-stroke { stroke: var(--surface-border); }
        .secondary-fill { fill: var(--secondary-fill); }
        .secondary-stroke { stroke: var(--secondary-fill); }
    </style>

    <!-- Background Blob -->
    <path class="blob-fill" d="M600,400 Q500,550 300,520 Q100,490 130,300 Q160,110 400,140 Q640,170 600,400 Z" opacity="0.8"/>

    <!-- Decorative Corner: Top Right -->
    <g transform="translate(700, 60)">
        <rect x="0" y="0" width="10" height="10" class="primary-fill" opacity="0.6"/>
        <rect x="15" y="0" width="10" height="10" class="primary-fill" opacity="0.4"/>
        <rect x="0" y="15" width="10" height="10" class="primary-fill" opacity="0.4"/>
        <rect x="15" y="15" width="10" height="10" class="primary-fill" opacity="0.2"/>
    </g>

    <!-- Main Illustration: Minikube on macOS -->
    <g transform="translate(200, 150)">
        <!-- Laptop -->
        <g transform="translate(50, 50)">
            <!-- Screen -->
            <rect x="0" y="0" width="300" height="180" rx="10" class="surface-fill surface-stroke" stroke-width="2"/>
            <rect x="10" y="10" width="280" height="160" class="ink-fill" opacity="0.1"/>
            
            <!-- Base -->
            <path d="M-20,180 L320,180 L300,190 L0,190 Z" class="accent-fill"/>
            
            <!-- Apple Logo (Abstract) -->
            <circle cx="150" cy="185" r="3" class="surface-fill"/>
        </g>

        <!-- Minikube Logo/Icon -->
        <g transform="translate(150, 80)">
            <path d="M0,20 L20,0 L80,0 L100,20 L100,80 L80,100 L20,100 L0,80 Z" class="primary-fill"/>
            <path d="M20,20 L80,20 L80,80 L20,80 Z" class="surface-fill" opacity="0.2"/>
            
            <!-- Wheel -->
            <circle cx="50" cy="50" r="20" class="surface-fill"/>
            <path d="M50,30 L50,70 M30,50 L70,50" stroke="var(--primary-color)" stroke-width="4"/>
        </g>
    </g>

    <!-- Decorative Corner: Bottom Left -->
    <g transform="translate(50, 500)">
        <path d="M0,20 L20,0 L40,20 L20,40 Z" class="secondary-fill" opacity="0.5"/>
        <path d="M10,20 L20,10 L30,20 L20,30 Z" class="surface-fill"/>
    </g>
</svg>