<svg viewBox="0 0 800 600" preserveAspectRatio="xMidYMid meet" xmlns="http://www.w3.org/2000/svg">
    <style>
        :root {
            --primary-color: #f29111;       /* Java Orange */
            --accent-color: #007396;        /* Java Blue */
            --ink-color: #2f2e41;
            --bg-blob-color: #f2f2f2;
            --surface-color: #ffffff;
            --surface-border: #2f2e41;
            --secondary-fill: #e0e0e0;
        }
        @media (prefers-color-scheme: dark) {
            :root {
                --primary-color: #ffb74d;
                --accent-color: #4fc3f7;
                --ink-color: #e0e0e0;
                --bg-blob-color: #374151;
                --surface-color: #1f2937;
                --surface-border: #9ca3af;
                --secondary-fill: #4b5563;
            }
        }
        .primary-fill { fill: var(--primary-color); }
        .primary-stroke { stroke: var(--primary-color); }
        .accent-fill { fill: var(--accent-color); }
        .ink-fill { fill: var(--ink-color); }
        .ink-stroke { stroke: var(--ink-color); }
        .blob-fill { fill: var(--bg-blob-color); }
        .surface-fill { fill: var(--surface-color); }
        .surface-stroke { stroke: var(--surface-border); }
        .secondary-fill { fill: var(--secondary-fill); }
        .secondary-stroke { stroke: var(--secondary-fill); }
    </style>

    <!-- Background Blob -->
    <path class="blob-fill" d="M600,400 Q500,550 300,520 Q100,490 130,300 Q160,110 400,140 Q640,170 600,400 Z" opacity="0.8"/>

    <!-- Decorative Corner: Top Left -->
    <g transform="translate(50, 50)">
        <rect x="0" y="0" width="10" height="10" class="primary-fill" opacity="0.6"/>
        <rect x="15" y="0" width="10" height="10" class="primary-fill" opacity="0.4"/>
        <rect x="0" y="15" width="10" height="10" class="primary-fill" opacity="0.4"/>
        <rect x="15" y="15" width="10" height="10" class="primary-fill" opacity="0.2"/>
    </g>

    <!-- Main Illustration: ArrayList Expansion -->
    <g transform="translate(200, 180)">
        <!-- Original Array -->
        <g transform="translate(0, 50)">
            <rect x="0" y="0" width="200" height="40" rx="2" class="surface-fill surface-stroke" stroke-width="2"/>
            <line x1="20" y1="0" x2="20" y2="40" class="surface-stroke" stroke-width="2"/>
            <line x1="40" y1="0" x2="40" y2="40" class="surface-stroke" stroke-width="2"/>
            <line x1="60" y1="0" x2="60" y2="40" class="surface-stroke" stroke-width="2"/>
            <text x="80" y="25" font-family="monospace" class="ink-fill">...</text>
            <text x="0" y="-10" font-family="monospace" class="ink-fill">Capacity: 10</text>
        </g>

        <!-- Expansion Arrow -->
        <g transform="translate(100, 100)">
            <path d="M0,0 L0,40" class="ink-stroke" stroke-width="3" marker-end="url(#arrow)"/>
            <polygon points="-5,40 0,50 5,40" class="ink-fill"/>
            <text x="10" y="30" font-family="monospace" font-weight="bold" class="accent-fill">x 1.5</text>
        </g>

        <!-- New Array -->
        <g transform="translate(0, 160)">
            <rect x="0" y="0" width="300" height="40" rx="2" class="surface-fill surface-stroke" stroke-width="2" stroke-dasharray="4,2"/>
            <rect x="0" y="0" width="200" height="40" rx="2" class="primary-fill" opacity="0.2"/>
            <text x="0" y="-10" font-family="monospace" class="ink-fill">Capacity: 15</text>
        </g>
    </g>

    <!-- Decorative Corner: Bottom Right -->
    <g transform="translate(700, 500)">
        <path d="M0,20 L20,0 L40,20 L20,40 Z" class="secondary-fill" opacity="0.5"/>
        <path d="M10,20 L20,10 L30,20 L20,30 Z" class="surface-fill"/>
    </g>
</svg>