<svg viewBox="0 0 800 600" preserveAspectRatio="xMidYMid meet" xmlns="http://www.w3.org/2000/svg">
    <style>
        :root {
            --primary-color: #0d6da4;       /* Docker Blue */
            --accent-color: #2496ed;        /* Docker Light Blue */
            --ink-color: #2f2e41;
            --bg-blob-color: #f2f2f2;
            --surface-color: #ffffff;
            --surface-border: #2f2e41;
            --secondary-fill: #e0e0e0;
        }
        @media (prefers-color-scheme: dark) {
            :root {
                --primary-color: #1D63ED;
                --accent-color: #57b6ff;
                --ink-color: #e0e0e0;
                --bg-blob-color: #374151;
                --surface-color: #1f2937;
                --surface-border: #9ca3af;
                --secondary-fill: #4b5563;
            }
        }
        .primary-fill { fill: var(--primary-color); }
        .primary-stroke { stroke: var(--primary-color); }
        .accent-fill { fill: var(--accent-color); }
        .ink-fill { fill: var(--ink-color); }
        .ink-stroke { stroke: var(--ink-color); }
        .blob-fill { fill: var(--bg-blob-color); }
        .surface-fill { fill: var(--surface-color); }
        .surface-stroke { stroke: var(--surface-border); }
        .secondary-fill { fill: var(--secondary-fill); }
        .secondary-stroke { stroke: var(--secondary-fill); }
    </style>

    <!-- Background Blob -->
    <path class="blob-fill" d="M640,440 Q540,540 340,510 Q140,480 170,290 Q200,100 440,130 Q680,160 640,440 Z" opacity="0.8"/>

    <!-- Decorative Corner: Top Left -->
    <g transform="translate(50, 50)">
        <rect x="0" y="0" width="10" height="40" class="accent-fill" opacity="0.5"/>
        <rect x="15" y="10" width="10" height="30" class="accent-fill" opacity="0.3"/>
        <rect x="30" y="20" width="10" height="20" class="accent-fill" opacity="0.2"/>
    </g>

    <!-- Main Illustration: Docker Containerization -->
    <g transform="translate(200, 150)">
        <!-- Ship/Platform -->
        <path d="M0,150 L30,200 L370,200 L400,150 Z" class="surface-fill surface-stroke" stroke-width="2"/>
        <line x1="30" y1="180" x2="370" y2="180" class="surface-stroke" stroke-width="2" opacity="0.3"/>
        
        <!-- Containers Stack -->
        <g transform="translate(50, 50)">
            <!-- Bottom Row -->
            <rect x="0" y="60" width="80" height="80" class="primary-fill"/>
            <rect x="90" y="60" width="80" height="80" class="accent-fill"/>
            <rect x="180" y="60" width="80" height="80" class="primary-fill"/>
            
            <!-- Top Row -->
            <rect x="45" y="-30" width="80" height="80" class="accent-fill"/>
            <rect x="135" y="-30" width="80" height="80" class="primary-fill"/>
            
            <!-- Container Details (Lines) -->
            <line x1="20" y1="80" x2="60" y2="80" stroke="#fff" stroke-width="2" opacity="0.5"/>
            <line x1="20" y1="100" x2="60" y2="100" stroke="#fff" stroke-width="2" opacity="0.5"/>
            
            <line x1="110" y1="80" x2="150" y2="80" stroke="#fff" stroke-width="2" opacity="0.5"/>
            <line x1="110" y1="100" x2="150" y2="100" stroke="#fff" stroke-width="2" opacity="0.5"/>
        </g>
    </g>

    <!-- Decorative Corner: Bottom Right -->
    <g transform="translate(700, 500)">
        <circle cx="20" cy="20" r="15" fill="none" class="secondary-stroke" stroke-width="3" stroke-dasharray="10,5"/>
        <circle cx="20" cy="20" r="5" class="ink-fill"/>
    </g>
</svg>